<svg viewBox="0 0 48 48" xml:space="preserve" xmlns="http://www.w3.org/2000/svg"><path clip-rule="evenodd" d="M37.386 14.996C40.245 18.183 42 22.381 42 27c0 9.941-8.059 18-18 18S6 36.941 6 27c0-8.917 6.49-16.299 15-17.73V5h-2a1 1 0 1 1 0-2h10a1 1 0 1 1 0 2h-2v4.265a17.967 17.967 0 0 1 9.005 4.35l2.329-2.329a.977.977 0 0 1 1.381 1.381l-2.329 2.329zM25 5h-2v4.051c.333-.019.662-.051 1-.051s.667.029 1 .047V5zm-1 6c-8.836 0-16 7.163-16 16s7.164 16 16 16c8.837 0 16-7.163 16-16 0-8.836-7.163-16-16-16zm0 20a4 4 0 0 1-4-4c0-.749.219-1.442.578-2.041l-5.293-5.292a.977.977 0 0 1 1.381-1.381l5.293 5.292A3.957 3.957 0 0 1 24 23a4 4 0 0 1 0 8zm0-6a2 2 0 1 0 .001 4.001A2 2 0 0 0 24 25z" fill-rule="evenodd" fill="#ffffff" class="fill-000000"></path></svg>