<?xml version="1.0" ?><!DOCTYPE svg  PUBLIC '-//W3C//DTD SVG 1.1//EN'  'http://www.w3.org/Graphics/SVG/1.1/DTD/svg11.dtd'><svg enable-background="new 0 0 64 64" height="64px" id="Layer_1" version="1.1" viewBox="0 0 64 64" width="64px" xml:space="preserve" xmlns="http://www.w3.org/2000/svg" xmlns:xlink="http://www.w3.org/1999/xlink"><g><path d="M26.246,1.797c0-0.98-0.794-1.777-1.775-1.777H4.223c-0.98,0-1.777,0.797-1.777,1.777v60.404   c0,0.984,0.797,1.778,1.777,1.778H24.47c0.981,0,1.775-0.794,1.775-1.778v-0.258v-0.687c0.012-1.778-1.246-2.142-2.02-2.199H9.509   c-2.473,0-2.912-1.391-2.975-2.107v-2.93c0.012-0.495,0.237-2.101,2.753-2.101h10.008c0.643-0.016,2.338-0.222,2.369-2.056V49.05   c0-1.166-0.854-1.505-1.567-1.591H9.343c-2.264,0-2.729-1.418-2.809-2.305v-3.47c0.06-0.727,0.469-2.086,2.753-2.086h10.527   c0.709-0.056,1.849-0.403,1.849-2.092v-0.668c0-1.259-0.921-1.615-1.664-1.701H9.509c-2.442,0-2.904-1.412-2.975-2.222v-3.418   c0.066-0.646,0.497-1.778,2.781-1.778h10.239c0.564-0.016,2.08-0.222,2.11-2.095v-0.369c0-1.837-1.818-1.991-2.291-2H8.696   C7.9,23.188,6.535,22.73,6.535,20.343v-2.532c0.07-0.735,0.518-1.969,2.809-1.969h10.285c0.774-0.049,2.095-0.369,2.037-2.048   v-0.471c0-1.998-2.664-1.943-2.664-1.943H9.149c-2.172,0-2.56-1.371-2.615-2.092V6.742C6.59,6.155,6.968,4.998,9.122,4.998h14.964   c0.753-0.043,2.188-0.338,2.163-2V1.944h-0.003V1.797z" fill="#241F20"/><path d="M61.464,1.303c-0.426-0.853-1.181-1.182-2.854-0.689c-1.403,0.425-2.441,1.665-2.974,2.427   c-0.005,0.006-0.008,0.006-0.013,0.014c-0.504,0.657-0.996,0.254-0.996,0.254l0.001,0.012c-0.29-0.169-0.595-0.314-0.928-0.4   c-3.233-0.84-6.823,2.193-8.017,6.779c-1.09,4.183,0.209,8.178,2.897,9.492l-0.015,0.031c0,0,0.884,0.544,0.249,1.72   c-0.002,0.003-0.002,0.003-0.002,0.006l-2.263,4.178l-1.941,3.203c-0.643,1.055-1.358-0.003-1.358-0.003v0.003l-4.093-7.399   c-0.947-1.723,0.174-2.461,0.174-2.461l-0.013-0.016c1.949-1.738,2.781-5.167,1.848-8.753c-1.193-4.585-4.784-7.619-8.02-6.779   c-3.233,0.843-4.888,5.242-3.695,9.826c0.916,3.519,3.241,6.106,5.737,6.746l-0.008,0.009c0,0,1.281,0.329,1.891,2.04l3.822,10.789   c0.162,0.523,0.361,1.523-0.129,2.335l0,0l-0.866,1.428c-0.003,0.006-0.52,1.181-0.623,1.86l-3.883,25.821c0,0,0.219,0.443,0.376,0   l7.677-21.671c0,0,0.536-1.052,0.908,0l7.674,21.659c0.007,0.009,0.365,0.479,0.543,0l-4.28-25.562   c-0.13-0.764-0.728-2.08-0.734-2.093l-0.529-0.956c-0.52-0.938-0.375-1.96-0.203-2.582l4.142-11.688   c0.001-0.006,0.001-0.006,0.003-0.009c0.31-0.871,0.933-1.354,1.374-1.6c0.108-0.043,0.215-0.107,0.322-0.157   c0.096-0.04,0.163-0.062,0.163-0.062l-0.033-0.006c2.039-1.03,3.827-3.326,4.604-6.303c0.323-1.246,0.42-2.469,0.35-3.62   c0.001,0.001,0.017,0.02,0.017,0.02s0,0,0.021-0.592c-0.267-4.595,1.48-4.824,2.563-5.053C61.432,3.273,61.728,2.091,61.464,1.303z    M36.792,16.06c-1.902,0.496-4.017-1.292-4.718-3.992c-0.704-2.703,0.268-5.295,2.175-5.79c1.906-0.499,4.02,1.292,4.725,3.993   C39.678,12.972,38.699,15.565,36.792,16.06z M54.777,12.068c-0.701,2.701-2.814,4.488-4.72,3.992   c-1.907-0.495-2.886-3.088-2.181-5.789c0.704-2.701,2.818-4.492,4.726-3.993C54.507,6.773,55.479,9.365,54.777,12.068z" fill="#241F20"/></g></svg>