<svg viewBox="0 0 64 64" xml:space="preserve" xmlns="http://www.w3.org/2000/svg"><g fill="#ceb76c" class="fill-241f20"><path d="M26.246 1.797c0-.98-.794-1.777-1.775-1.777H4.223c-.98 0-1.777.797-1.777 1.777v60.404c0 .984.797 1.778 1.777 1.778H24.47c.981 0 1.775-.794 1.775-1.778V61.256c.012-1.778-1.246-2.142-2.02-2.199H9.509c-2.473 0-2.912-1.391-2.975-2.107v-2.93c.012-.495.237-2.101 2.753-2.101h10.008c.643-.016 2.338-.222 2.369-2.056v-.813c0-1.166-.854-1.505-1.567-1.591H9.343c-2.264 0-2.729-1.418-2.809-2.305v-3.47c.06-.727.469-2.086 2.753-2.086h10.527c.709-.056 1.849-.403 1.849-2.092v-.668c0-1.259-.921-1.615-1.664-1.701H9.509c-2.442 0-2.904-1.412-2.975-2.222v-3.418c.066-.646.497-1.778 2.781-1.778h10.239c.564-.016 2.08-.222 2.11-2.095v-.369c0-1.837-1.818-1.991-2.291-2H8.696c-.796-.067-2.161-.525-2.161-2.912v-2.532c.07-.735.518-1.969 2.809-1.969h10.285c.774-.049 2.095-.369 2.037-2.048v-.471c0-1.998-2.664-1.943-2.664-1.943H9.149c-2.172 0-2.56-1.371-2.615-2.092V6.742c.056-.587.434-1.744 2.588-1.744h14.964c.753-.043 2.188-.338 2.163-2V1.944h-.003v-.147zM61.464 1.303C61.038.45 60.283.121 58.61.614c-1.403.425-2.441 1.665-2.974 2.427-.005.006-.008.006-.013.014-.504.657-.996.254-.996.254l.001.012a3.668 3.668 0 0 0-.928-.4c-3.233-.84-6.823 2.193-8.017 6.779-1.09 4.183.209 8.178 2.897 9.492l-.015.031s.884.544.249 1.72l-.002.006-2.263 4.178-1.941 3.203c-.643 1.055-1.358-.003-1.358-.003v.003l-4.093-7.399c-.947-1.723.174-2.461.174-2.461l-.013-.016c1.949-1.738 2.781-5.167 1.848-8.753-1.193-4.585-4.784-7.619-8.02-6.779-3.233.843-4.888 5.242-3.695 9.826.916 3.519 3.241 6.106 5.737 6.746l-.008.009s1.281.329 1.891 2.04l3.822 10.789c.162.523.361 1.523-.129 2.335l-.866 1.428c-.003.006-.52 1.181-.623 1.86l-3.883 25.821s.219.443.376 0l7.677-21.671s.536-1.052.908 0l7.674 21.659c.007.009.365.479.543 0l-4.28-25.562c-.13-.764-.728-2.08-.734-2.093l-.529-.956c-.52-.938-.375-1.96-.203-2.582l4.142-11.688.003-.009a2.97 2.97 0 0 1 1.374-1.6c.108-.043.215-.107.322-.157.096-.04.163-.062.163-.062l-.033-.006c2.039-1.03 3.827-3.326 4.604-6.303.323-1.246.42-2.469.35-3.62l.017.02.021-.592c-.267-4.595 1.48-4.824 2.563-5.053 1.082-.228 1.378-1.41 1.114-2.198zM36.792 16.06c-1.902.496-4.017-1.292-4.718-3.992-.704-2.703.268-5.295 2.175-5.79 1.906-.499 4.02 1.292 4.725 3.993.704 2.701-.275 5.294-2.182 5.789zm17.985-3.992c-.701 2.701-2.814 4.488-4.72 3.992-1.907-.495-2.886-3.088-2.181-5.789.704-2.701 2.818-4.492 4.726-3.993 1.905.495 2.877 3.087 2.175 5.79z"></path></g></svg>