<svg viewBox="0 0 32 32" xmlns="http://www.w3.org/2000/svg"><g data-name="17-Clock"><path d="M18 4.16V2h1a2 2 0 0 0 2-2l-8 .06A.26.26 0 0 1 13 0h-2a2 2 0 0 0 2 2h1v2.16a14 14 0 1 0 4 0ZM16 30a12 12 0 1 1 12-12 12 12 0 0 1-12 12Z" fill="#ffffff" class="fill-000000"></path><path d="M14 12h-3a2 2 0 0 0-2 2v3h2v-3h2v4h-2a2 2 0 0 0-2 2v2a2 2 0 0 0 2 2h4v-2h-4v-2h2a2 2 0 0 0 2-2v-5a1 1 0 0 0-1-1ZM22 12h-2v5h-2v-5h-2v6a1 1 0 0 0 1 1h3v5h2v-5h2v-2h-2Z" fill="#ffffff" class="fill-000000"></path></g></svg>